<svg width="72" height="103" viewBox="0 0 72 103" fill="none" xmlns="http://www.w3.org/2000/svg">
<path d="M44.9902 35L26.9902 35C26.4607 34.9978 25.9536 34.7856 25.5802 34.41C25.2046 34.0367 24.9925 33.5296 24.9902 33L24.9902 12.53L46.9902 12.53L46.9902 33C46.9907 33.5282 46.7822 34.035 46.4102 34.41C46.2242 34.5972 46.0029 34.7457 45.7592 34.847C45.5155 34.9482 45.2541 35.0002 44.9902 35Z" fill="white" stroke="#9DB3E9" stroke-width="2" stroke-miterlimit="10"/>
<path d="M21.3301 5L50.6701 5C50.9353 5 51.1896 4.89464 51.3772 4.70711C51.5647 4.51957 51.6701 4.26522 51.6701 4L51.6701 2C51.6701 1.73479 51.5647 1.48043 51.3772 1.2929C51.1896 1.10536 50.9353 1 50.6701 1L21.3301 1C21.0649 1 20.8105 1.10536 20.623 1.29289C20.4354 1.48043 20.3301 1.73478 20.3301 2L20.3301 4C20.3301 4.26522 20.4354 4.51957 20.623 4.70711C20.8105 4.89464 21.0649 5 21.3301 5Z" fill="white" stroke="#9DB3E9" stroke-width="2" stroke-miterlimit="10"/>
<path d="M47.8198 24.53C47.8225 25.0834 48.0435 25.6135 48.4349 26.0049C48.8263 26.3963 49.3563 26.6173 49.9098 26.62C50.4641 26.62 50.9957 26.3998 51.3877 26.0078C51.7796 25.6159 51.9998 25.0843 51.9998 24.53L51.9998 14.29C51.9998 13.7357 51.7796 13.204 51.3877 12.8121C50.9957 12.4201 50.4641 12.2 49.9098 12.2C49.3563 12.2026 48.8263 12.4236 48.4349 12.815C48.0435 13.2064 47.8225 13.7365 47.8198 14.29L47.8198 24.53Z" fill="white" stroke="#9DB3E9" stroke-width="2" stroke-miterlimit="10"/>
<path d="M22.5 5L49.5 5L46.99 12.55L24.99 12.55L22.5 5Z" fill="white" stroke="#9DB3E9" stroke-width="2" stroke-miterlimit="10"/>
<path d="M20 24.53C20.0026 25.0834 20.2237 25.6135 20.6151 26.0049C21.0064 26.3963 21.5365 26.6173 22.09 26.62C22.6443 26.62 23.1759 26.3998 23.5679 26.0078C23.9598 25.6159 24.18 25.0843 24.18 24.53L24.18 14.29C24.18 13.7357 23.9598 13.204 23.5679 12.8121C23.1759 12.4201 22.6443 12.2 22.09 12.2C21.5365 12.2026 21.0064 12.4236 20.6151 12.815C20.2237 13.2064 20.0026 13.7365 20 14.29L20 24.53Z" fill="white" stroke="#9DB3E9" stroke-width="2" stroke-miterlimit="10"/>
<rect x="71" y="32" width="70" height="70" rx="11" transform="rotate(90 71 32)" fill="white" stroke="#9DB3E9" stroke-width="2"/>
</svg>
