<svg width="134" height="72" viewBox="0 0 134 72" fill="none" xmlns="http://www.w3.org/2000/svg">
<path d="M98.9987 44.9902L98.9987 26.9902C99.001 26.4607 99.2132 25.9536 99.5887 25.5802C99.9621 25.2046 100.469 24.9925 100.999 24.9902L121.469 24.9902L121.469 46.9902L100.999 46.9902C100.471 46.9907 99.9637 46.7822 99.5887 46.4102C99.4016 46.2242 99.2531 46.0029 99.1518 45.7592C99.0506 45.5155 98.9985 45.2541 98.9987 44.9902Z" fill="white" stroke="#9DB3E9" stroke-width="2" stroke-miterlimit="10"/>
<path d="M129 21.3301L129 50.6701C129 50.9353 129.105 51.1896 129.293 51.3772C129.48 51.5647 129.735 51.6701 130 51.6701L132 51.6701C132.265 51.6701 132.52 51.5647 132.707 51.3772C132.895 51.1896 133 50.9353 133 50.6701L133 21.3301C133 21.0649 132.895 20.8105 132.707 20.623C132.52 20.4354 132.265 20.3301 132 20.3301L130 20.3301C129.735 20.3301 129.48 20.4354 129.293 20.623C129.105 20.8105 129 21.0649 129 21.3301Z" fill="white" stroke="#9DB3E9" stroke-width="2" stroke-miterlimit="10"/>
<path d="M109.471 47.8198C108.917 47.8225 108.387 48.0435 107.996 48.4349C107.604 48.8263 107.383 49.3563 107.381 49.9098C107.381 50.4641 107.601 50.9957 107.993 51.3877C108.385 51.7796 108.916 51.9998 109.471 51.9998L119.711 51.9998C120.265 51.9998 120.797 51.7796 121.189 51.3877C121.581 50.9957 121.801 50.4641 121.801 49.9098C121.798 49.3563 121.577 48.8263 121.186 48.4349C120.794 48.0435 120.264 47.8225 119.711 47.8198L109.471 47.8198Z" fill="white" stroke="#9DB3E9" stroke-width="2" stroke-miterlimit="10"/>
<path d="M129 22.5L129 49.5L121.45 46.99L121.45 24.99L129 22.5Z" fill="white" stroke="#9DB3E9" stroke-width="2" stroke-miterlimit="10"/>
<path d="M109.471 20C108.917 20.0026 108.387 20.2237 107.996 20.6151C107.604 21.0064 107.383 21.5365 107.381 22.09C107.381 22.6443 107.601 23.1759 107.993 23.5679C108.385 23.9598 108.916 24.18 109.471 24.18L119.711 24.18C120.265 24.18 120.797 23.9598 121.189 23.5679C121.581 23.1759 121.801 22.6443 121.801 22.09C121.798 21.5365 121.577 21.0064 121.186 20.6151C120.794 20.2237 120.264 20.0026 119.711 20L109.471 20Z" fill="white" stroke="#9DB3E9" stroke-width="2" stroke-miterlimit="10"/>
<path d="M35.0013 27.0098L35.0013 45.0098C34.999 45.5393 34.7868 46.0464 34.4113 46.4198C34.0379 46.7954 33.5308 47.0075 33.0013 47.0098L12.5312 47.0098L12.5313 25.0098L33.0013 25.0098C33.5294 25.0093 34.0363 25.2178 34.4113 25.5898C34.5984 25.7758 34.7469 25.9971 34.8482 26.2408C34.9494 26.4845 35.0015 26.7459 35.0013 27.0098Z" fill="white" stroke="#9DB3E9" stroke-width="2" stroke-miterlimit="10"/>
<path d="M5 50.6699L5 21.3299C5 21.0647 4.89464 20.8104 4.70711 20.6228C4.51957 20.4353 4.26522 20.3299 4 20.3299L2 20.3299C1.73478 20.3299 1.48043 20.4353 1.29289 20.6228C1.10536 20.8104 1 21.0647 1 21.3299L1 50.6699C1 50.9351 1.10536 51.1895 1.29289 51.377C1.48043 51.5646 1.73478 51.6699 2 51.6699L4 51.6699C4.26522 51.6699 4.51957 51.5646 4.70711 51.377C4.89464 51.1895 5 50.9351 5 50.6699Z" fill="white" stroke="#9DB3E9" stroke-width="2" stroke-miterlimit="10"/>
<path d="M24.5292 24.1802C25.0827 24.1775 25.6128 23.9565 26.0042 23.5651C26.3955 23.1737 26.6166 22.6437 26.6192 22.0902C26.6192 21.5359 26.399 21.0043 26.0071 20.6123C25.6151 20.2204 25.0835 20.0002 24.5292 20.0002L14.2892 20.0002C13.7349 20.0002 13.2033 20.2204 12.8114 20.6123C12.4194 21.0043 12.1992 21.5359 12.1992 22.0902C12.2018 22.6437 12.4229 23.1737 12.8143 23.5651C13.2057 23.9565 13.7357 24.1775 14.2892 24.1802L24.5292 24.1802Z" fill="white" stroke="#9DB3E9" stroke-width="2" stroke-miterlimit="10"/>
<path d="M5 49.5L5 22.5L12.55 25.01L12.55 47.01L5 49.5Z" fill="white" stroke="#9DB3E9" stroke-width="2" stroke-miterlimit="10"/>
<path d="M24.5292 52C25.0827 51.9974 25.6128 51.7763 26.0042 51.3849C26.3955 50.9936 26.6166 50.4635 26.6192 49.91C26.6192 49.3557 26.399 48.8241 26.0071 48.4321C25.6151 48.0402 25.0835 47.82 24.5292 47.82L14.2892 47.82C13.7349 47.82 13.2033 48.0402 12.8114 48.4321C12.4194 48.8241 12.1992 49.3557 12.1992 49.91C12.2018 50.4635 12.4229 50.9936 12.8143 51.3849C13.2057 51.7763 13.7357 51.9974 14.2892 52L24.5292 52Z" fill="white" stroke="#9DB3E9" stroke-width="2" stroke-miterlimit="10"/>
<rect x="32" y="1" width="70" height="70" rx="11" fill="white" stroke="#9DB3E9" stroke-width="2"/>
</svg>
