<svg width="36" height="34" viewBox="0 0 36 34" fill="none" xmlns="http://www.w3.org/2000/svg">
<path d="M35.0013 8.00977L35.0013 26.0098C34.999 26.5393 34.7868 27.0464 34.4113 27.4198C34.0379 27.7954 33.5308 28.0075 33.0013 28.0098L12.5312 28.0098L12.5313 6.00977L33.0013 6.00977C33.5294 6.00934 34.0363 6.21784 34.4113 6.58976C34.5984 6.77582 34.7469 6.99709 34.8482 7.2408C34.9494 7.48451 35.0015 7.74585 35.0013 8.00977Z" fill="white" stroke="#9DB3E9" stroke-width="2" stroke-miterlimit="10"/>
<path d="M5 31.6699L5 2.32992C5 2.0647 4.89464 1.81035 4.70711 1.62281C4.51957 1.43528 4.26522 1.32992 4 1.32992L2 1.32992C1.73478 1.32992 1.48043 1.43528 1.29289 1.62281C1.10536 1.81035 1 2.0647 1 2.32992L1 31.6699C1 31.9351 1.10536 32.1895 1.29289 32.377C1.48043 32.5646 1.73478 32.6699 2 32.6699L4 32.6699C4.26522 32.6699 4.51957 32.5646 4.70711 32.377C4.89464 32.1895 5 31.9351 5 31.6699Z" fill="white" stroke="#9DB3E9" stroke-width="2" stroke-miterlimit="10"/>
<path d="M24.5292 5.18018C25.0827 5.17755 25.6128 4.95651 26.0042 4.56512C26.3955 4.17374 26.6166 3.64367 26.6192 3.09018C26.6192 2.53587 26.399 2.00427 26.0071 1.61232C25.6151 1.22037 25.0835 1.00018 24.5292 1.00018L14.2892 1.00018C13.7349 1.00018 13.2033 1.22037 12.8114 1.61232C12.4194 2.00427 12.1992 2.53587 12.1992 3.09018C12.2018 3.64367 12.4229 4.17374 12.8143 4.56512C13.2057 4.95651 13.7357 5.17755 14.2892 5.18018L24.5292 5.18018Z" fill="white" stroke="#9DB3E9" stroke-width="2" stroke-miterlimit="10"/>
<path d="M5 30.5L5 3.5L12.55 6.01L12.55 28.01L5 30.5Z" fill="white" stroke="#9DB3E9" stroke-width="2" stroke-miterlimit="10"/>
<path d="M24.5292 33C25.0827 32.9974 25.6128 32.7763 26.0042 32.3849C26.3955 31.9936 26.6166 31.4635 26.6192 30.91C26.6192 30.3557 26.399 29.8241 26.0071 29.4321C25.6151 29.0402 25.0835 28.82 24.5292 28.82L14.2892 28.82C13.7349 28.82 13.2033 29.0402 12.8114 29.4321C12.4194 29.8241 12.1992 30.3557 12.1992 30.91C12.2018 31.4635 12.4229 31.9936 12.8143 32.3849C13.2057 32.7763 13.7357 32.9974 14.2892 33L24.5292 33Z" fill="white" stroke="#9DB3E9" stroke-width="2" stroke-miterlimit="10"/>
</svg>
