<svg width="72" height="134" viewBox="0 0 72 134" fill="none" xmlns="http://www.w3.org/2000/svg">
<path d="M27.0117 98.9997L45.0117 98.9997C45.5413 99.002 46.0484 99.2141 46.4217 99.5897C46.7973 99.9631 47.0095 100.47 47.0117 101L47.0117 121.47L25.0117 121.47L25.0117 101C25.0113 100.472 25.2198 99.9647 25.5917 99.5897C25.7778 99.4026 25.999 99.2541 26.2428 99.1528C26.4865 99.0515 26.7478 98.9995 27.0117 98.9997Z" fill="white" stroke="#9DB3E9" stroke-width="2" stroke-miterlimit="10"/>
<path d="M50.6719 129L21.3319 129C21.0667 129 20.8123 129.105 20.6248 129.293C20.4372 129.48 20.3319 129.735 20.3319 130L20.3319 132C20.3319 132.265 20.4372 132.52 20.6248 132.707C20.8123 132.895 21.0667 133 21.3319 133L50.6719 133C50.9371 133 51.1914 132.895 51.379 132.707C51.5665 132.52 51.6719 132.265 51.6719 132L51.6719 130C51.6719 129.735 51.5665 129.48 51.379 129.293C51.1914 129.105 50.9371 129 50.6719 129Z" fill="white" stroke="#9DB3E9" stroke-width="2" stroke-miterlimit="10"/>
<path d="M24.1797 109.47C24.1771 108.916 23.956 108.386 23.5646 107.995C23.1733 107.603 22.6432 107.382 22.0897 107.38C21.5354 107.38 21.0038 107.6 20.6118 107.992C20.2199 108.384 19.9997 108.916 19.9997 109.47L19.9997 119.71C19.9997 120.264 20.2199 120.796 20.6118 121.188C21.0038 121.58 21.5354 121.8 22.0897 121.8C22.6432 121.797 23.1733 121.576 23.5646 121.185C23.956 120.793 24.1771 120.263 24.1797 119.71L24.1797 109.47Z" fill="white" stroke="#9DB3E9" stroke-width="2" stroke-miterlimit="10"/>
<path d="M49.5 129L22.5 129L25.01 121.45L47.01 121.45L49.5 129Z" fill="white" stroke="#9DB3E9" stroke-width="2" stroke-miterlimit="10"/>
<path d="M52 109.47C51.9974 108.916 51.7763 108.386 51.3849 107.995C50.9936 107.603 50.4635 107.382 49.91 107.38C49.3557 107.38 48.8241 107.6 48.4321 107.992C48.0402 108.384 47.82 108.916 47.82 109.47L47.82 119.71C47.82 120.264 48.0402 120.796 48.4321 121.188C48.8241 121.58 49.3557 121.8 49.91 121.8C50.4635 121.797 50.9936 121.576 51.3849 121.185C51.7763 120.793 51.9974 120.263 52 119.71L52 109.47Z" fill="white" stroke="#9DB3E9" stroke-width="2" stroke-miterlimit="10"/>
<path d="M44.9883 35.0003L26.9883 35.0003C26.4587 34.998 25.9516 34.7859 25.5783 34.4103C25.2027 34.0369 24.9905 33.5299 24.9883 33.0003L24.9883 12.5303L46.9883 12.5303L46.9883 33.0003C46.9887 33.5284 46.7802 34.0353 46.4083 34.4103C46.2222 34.5974 46.001 34.7459 45.7572 34.8472C45.5135 34.9485 45.2522 35.0005 44.9883 35.0003Z" fill="white" stroke="#9DB3E9" stroke-width="2" stroke-miterlimit="10"/>
<path d="M21.3281 5L50.6681 5C50.9333 5 51.1877 4.89464 51.3752 4.70711C51.5628 4.51957 51.6681 4.26522 51.6681 4L51.6681 2C51.6681 1.73479 51.5628 1.48043 51.3752 1.2929C51.1877 1.10536 50.9333 1 50.6681 1L21.3281 1C21.0629 1 20.8086 1.10536 20.621 1.29289C20.4335 1.48043 20.3281 1.73478 20.3281 2L20.3281 4C20.3281 4.26522 20.4335 4.51957 20.621 4.70711C20.8086 4.89464 21.0629 5 21.3281 5Z" fill="white" stroke="#9DB3E9" stroke-width="2" stroke-miterlimit="10"/>
<path d="M47.8203 24.5302C47.8229 25.0837 48.044 25.6138 48.4354 26.0051C48.8267 26.3965 49.3568 26.6176 49.9103 26.6202C50.4646 26.6202 50.9962 26.4 51.3882 26.008C51.7801 25.6161 52.0003 25.0845 52.0003 24.5302L52.0003 14.2902C52.0003 13.7359 51.7801 13.2043 51.3882 12.8123C50.9962 12.4204 50.4646 12.2002 49.9103 12.2002C49.3568 12.2028 48.8267 12.4239 48.4354 12.8152C48.044 13.2066 47.8229 13.7367 47.8203 14.2902L47.8203 24.5302Z" fill="white" stroke="#9DB3E9" stroke-width="2" stroke-miterlimit="10"/>
<path d="M22.5 5L49.5 5L46.99 12.55L24.99 12.55L22.5 5Z" fill="white" stroke="#9DB3E9" stroke-width="2" stroke-miterlimit="10"/>
<path d="M20 24.5302C20.0026 25.0837 20.2237 25.6138 20.6151 26.0051C21.0064 26.3965 21.5365 26.6176 22.09 26.6202C22.6443 26.6202 23.1759 26.4 23.5679 26.008C23.9598 25.6161 24.18 25.0845 24.18 24.5302L24.18 14.2902C24.18 13.7359 23.9598 13.2043 23.5679 12.8123C23.1759 12.4204 22.6443 12.2002 22.09 12.2002C21.5365 12.2028 21.0064 12.4239 20.6151 12.8152C20.2237 13.2066 20.0026 13.7367 20 14.2902L20 24.5302Z" fill="white" stroke="#9DB3E9" stroke-width="2" stroke-miterlimit="10"/>
<rect x="71" y="32" width="70" height="70" rx="11" transform="rotate(90 71 32)" fill="white" stroke="#9DB3E9" stroke-width="2"/>
</svg>
