<svg width="126" height="29" viewBox="0 0 126 29" fill="none" xmlns="http://www.w3.org/2000/svg">
<g clip-path="url(#clip0_538_18577)">
<path d="M22.0438 15.4922H14.3003C16.0681 17.1275 17.1837 19.4557 17.1837 22.0436C17.1837 24.6316 16.0681 26.9648 14.3003 28.5951H22.0438C25.6609 28.5951 28.5953 25.6607 28.5953 22.0436C28.5953 18.4266 25.6609 15.4922 22.0438 15.4922Z" fill="#F0F0F0"/>
<path fill-rule="evenodd" clip-rule="evenodd" d="M0 28.5951H7.74353C11.3606 28.5951 14.295 25.6607 14.295 22.0436C14.295 18.4266 11.3606 15.4922 7.74353 15.4922H0C1.76777 17.1275 2.88345 19.4557 2.88345 22.0436C2.88345 24.6316 1.76777 26.9648 0 28.5951Z" fill="url(#paint0_linear_538_18577)"/>
<path d="M22.0438 0H14.3003C16.0681 1.63531 17.1837 3.96347 17.1837 6.55143C17.1837 9.13941 16.0681 11.4727 14.3003 13.1029H22.0438C25.6609 13.1029 28.5953 10.1685 28.5953 6.55143C28.5953 2.93439 25.6609 0 22.0438 0Z" fill="#F0F0F0"/>
<path fill-rule="evenodd" clip-rule="evenodd" d="M7.74353 0H0C1.76777 1.63531 2.88345 3.96347 2.88345 6.55143C2.88345 9.13941 1.76777 11.4727 0 13.108H7.74353C11.3606 13.108 14.295 10.1736 14.295 6.55653C14.295 2.93949 11.3657 0 7.74353 0Z" fill="url(#paint1_linear_538_18577)"/>
<path fill-rule="evenodd" clip-rule="evenodd" d="M7.74353 15.6865H0C1.76777 17.3218 2.88345 19.65 2.88345 22.238C2.88345 24.8259 1.76777 27.1592 0 28.7945H7.74353C11.3606 28.7945 14.295 25.8601 14.295 22.2431C14.295 18.626 11.3657 15.6865 7.74353 15.6865Z" fill="url(#paint2_linear_538_18577)"/>
<path d="M41.8203 21.4033H34V5.99902H41.5518C42.4899 5.99902 43.3206 6.08854 44.0439 6.26758C44.7744 6.44661 45.3545 6.67578 45.7842 6.95508C46.221 7.23438 46.5755 7.56738 46.8477 7.9541C47.127 8.34082 47.3167 8.72038 47.417 9.09277C47.5173 9.46517 47.5674 9.85189 47.5674 10.2529C47.5674 10.9906 47.3633 11.6387 46.9551 12.1973C46.5469 12.7559 45.9632 13.1318 45.2041 13.3252C46.1064 13.5615 46.8011 13.9948 47.2881 14.625C47.7822 15.2552 48.0293 15.9678 48.0293 16.7627C48.0293 17.2425 47.972 17.6937 47.8574 18.1162C47.75 18.5316 47.5495 18.9469 47.2559 19.3623C46.9622 19.7705 46.5863 20.1214 46.1279 20.415C45.6768 20.7087 45.0824 20.9486 44.3447 21.1348C43.6143 21.3138 42.7728 21.4033 41.8203 21.4033ZM38.0605 18.127H41.5088C42.3395 18.127 42.9375 18.0016 43.3027 17.751C43.6751 17.5003 43.8613 17.1029 43.8613 16.5586C43.8613 16.0143 43.6751 15.6169 43.3027 15.3662C42.9375 15.1156 42.3431 14.9902 41.5195 14.9902H38.0605V18.127ZM38.0605 12.1758H41.4121C42.737 12.1758 43.3994 11.6781 43.3994 10.6826C43.3994 9.74447 42.7406 9.27539 41.4229 9.27539H38.0605V12.1758Z" fill="url(#paint3_linear_538_18577)"/>
<path d="M56 21.7256C53.873 21.7256 52.208 21.1849 51.0049 20.1035C49.8089 19.015 49.2109 17.5898 49.2109 15.8281C49.2109 14.0592 49.8089 12.6341 51.0049 11.5527C52.208 10.4714 53.873 9.93066 56 9.93066C58.1341 9.93066 59.7992 10.4714 60.9951 11.5527C62.1911 12.6341 62.7891 14.0592 62.7891 15.8281C62.7891 17.597 62.1911 19.0221 60.9951 20.1035C59.7992 21.1849 58.1341 21.7256 56 21.7256ZM56 18.793C56.8737 18.793 57.5612 18.5208 58.0625 17.9766C58.571 17.4323 58.8252 16.7161 58.8252 15.8281C58.8252 14.9401 58.571 14.224 58.0625 13.6797C57.5612 13.1354 56.8737 12.8633 56 12.8633C55.1335 12.8633 54.446 13.139 53.9375 13.6904C53.429 14.2347 53.1748 14.9473 53.1748 15.8281C53.1748 16.709 53.429 17.4251 53.9375 17.9766C54.446 18.5208 55.1335 18.793 56 18.793Z" fill="url(#paint4_linear_538_18577)"/>
<path d="M70.7598 21.7256C68.6328 21.7256 66.9678 21.1849 65.7646 20.1035C64.5687 19.015 63.9707 17.5898 63.9707 15.8281C63.9707 14.0592 64.5687 12.6341 65.7646 11.5527C66.9678 10.4714 68.6328 9.93066 70.7598 9.93066C72.8939 9.93066 74.5589 10.4714 75.7549 11.5527C76.9508 12.6341 77.5488 14.0592 77.5488 15.8281C77.5488 17.597 76.9508 19.0221 75.7549 20.1035C74.5589 21.1849 72.8939 21.7256 70.7598 21.7256ZM70.7598 18.793C71.6335 18.793 72.321 18.5208 72.8223 17.9766C73.3307 17.4323 73.585 16.7161 73.585 15.8281C73.585 14.9401 73.3307 14.224 72.8223 13.6797C72.321 13.1354 71.6335 12.8633 70.7598 12.8633C69.8932 12.8633 69.2057 13.139 68.6973 13.6904C68.1888 14.2347 67.9346 14.9473 67.9346 15.8281C67.9346 16.709 68.1888 17.4251 68.6973 17.9766C69.2057 18.5208 69.8932 18.793 70.7598 18.793Z" fill="url(#paint5_linear_538_18577)"/>
<path d="M83.124 13.7656L86.873 10.2529H91.7607L86.6475 15.0225L91.7607 21.4033H87.0771L83.9727 17.5254L83.124 18.3096V21.4033H79.1602V5.11816H83.124V13.7656Z" fill="url(#paint6_linear_538_18577)"/>
<path d="M92.8457 21.4033V10.2529H96.8096V21.4033H92.8457ZM93.4365 8.35156C93.057 7.97201 92.8672 7.51009 92.8672 6.96582C92.8672 6.42155 93.057 5.95964 93.4365 5.58008C93.8161 5.19336 94.278 5 94.8223 5C95.3665 5 95.8284 5.19336 96.208 5.58008C96.5947 5.95964 96.7881 6.42155 96.7881 6.96582C96.7881 7.51009 96.5947 7.97201 96.208 8.35156C95.8284 8.73112 95.3665 8.9209 94.8223 8.9209C94.278 8.9209 93.8161 8.73112 93.4365 8.35156Z" fill="url(#paint7_linear_538_18577)"/>
<path d="M102.825 14.9365V21.4033H98.8613V10.2529H102.825V11.4561C103.477 10.4391 104.512 9.93066 105.93 9.93066C107.419 9.93066 108.604 10.3711 109.485 11.252C110.366 12.1328 110.807 13.361 110.807 14.9365V21.4033H106.843V14.9365C106.843 13.5544 106.173 12.8633 104.834 12.8633C103.495 12.8633 102.825 13.5544 102.825 14.9365Z" fill="url(#paint8_linear_538_18577)"/>
<path d="M125.556 10.2529V21.4033C125.541 22.2555 125.405 23.0111 125.147 23.6699C124.897 24.3359 124.564 24.8802 124.148 25.3027C123.733 25.7324 123.232 26.0833 122.645 26.3555C122.064 26.6348 121.459 26.8317 120.829 26.9463C120.199 27.0609 119.519 27.1182 118.788 27.1182C117.563 27.1182 116.514 27.0143 115.641 26.8066C114.774 26.6061 113.958 26.2839 113.191 25.8398L114.631 23.251C115.791 23.874 117.034 24.1855 118.358 24.1855C119.433 24.1855 120.238 23.9635 120.775 23.5195C121.32 23.0755 121.592 22.3701 121.592 21.4033V19.9854C120.954 21.1455 119.816 21.7256 118.176 21.7256C116.421 21.7256 115.021 21.1992 113.976 20.1465C112.937 19.0866 112.418 17.6471 112.418 15.8281C112.418 14.0091 112.937 12.5732 113.976 11.5205C115.021 10.4606 116.421 9.93066 118.176 9.93066C119.816 9.93066 120.954 10.5107 121.592 11.6709V10.2529H125.556ZM120.937 13.7012C120.5 13.1426 119.848 12.8633 118.981 12.8633C118.115 12.8633 117.463 13.1426 117.026 13.7012C116.59 14.2526 116.371 14.9616 116.371 15.8281C116.371 16.7018 116.59 17.4144 117.026 17.9658C117.463 18.5173 118.115 18.793 118.981 18.793C119.848 18.793 120.5 18.5173 120.937 17.9658C121.373 17.4144 121.592 16.7018 121.592 15.8281C121.592 14.9616 121.373 14.2526 120.937 13.7012Z" fill="url(#paint9_linear_538_18577)"/>
</g>
<defs>
<linearGradient id="paint0_linear_538_18577" x1="1.96446" y1="10.3514" x2="6.05371" y2="22.6188" gradientUnits="userSpaceOnUse">
<stop stop-color="#4B79A1"/>
<stop offset="1" stop-color="#283E51"/>
</linearGradient>
<linearGradient id="paint1_linear_538_18577" x1="1.95911" y1="-4.63659" x2="6.04836" y2="7.50633" gradientUnits="userSpaceOnUse">
<stop stop-color="#005CAA"/>
<stop offset="1" stop-color="#015195"/>
</linearGradient>
<linearGradient id="paint2_linear_538_18577" x1="1.95911" y1="11.0499" x2="6.04836" y2="23.1929" gradientUnits="userSpaceOnUse">
<stop stop-color="#005CAA"/>
<stop offset="1" stop-color="#015195"/>
</linearGradient>
<linearGradient id="paint3_linear_538_18577" x1="162.949" y1="61.693" x2="16.0657" y2="22.5378" gradientUnits="userSpaceOnUse">
<stop stop-color="#5A8CB7"/>
<stop offset="1" stop-color="#005195"/>
</linearGradient>
<linearGradient id="paint4_linear_538_18577" x1="162.949" y1="61.693" x2="16.0657" y2="22.5378" gradientUnits="userSpaceOnUse">
<stop stop-color="#5A8CB7"/>
<stop offset="1" stop-color="#005195"/>
</linearGradient>
<linearGradient id="paint5_linear_538_18577" x1="162.949" y1="61.693" x2="16.0657" y2="22.5378" gradientUnits="userSpaceOnUse">
<stop stop-color="#5A8CB7"/>
<stop offset="1" stop-color="#005195"/>
</linearGradient>
<linearGradient id="paint6_linear_538_18577" x1="162.949" y1="61.693" x2="16.0657" y2="22.5378" gradientUnits="userSpaceOnUse">
<stop stop-color="#5A8CB7"/>
<stop offset="1" stop-color="#005195"/>
</linearGradient>
<linearGradient id="paint7_linear_538_18577" x1="162.949" y1="61.693" x2="16.0657" y2="22.5378" gradientUnits="userSpaceOnUse">
<stop stop-color="#5A8CB7"/>
<stop offset="1" stop-color="#005195"/>
</linearGradient>
<linearGradient id="paint8_linear_538_18577" x1="162.949" y1="61.693" x2="16.0657" y2="22.5378" gradientUnits="userSpaceOnUse">
<stop stop-color="#5A8CB7"/>
<stop offset="1" stop-color="#005195"/>
</linearGradient>
<linearGradient id="paint9_linear_538_18577" x1="162.949" y1="61.693" x2="16.0657" y2="22.5378" gradientUnits="userSpaceOnUse">
<stop stop-color="#5A8CB7"/>
<stop offset="1" stop-color="#005195"/>
</linearGradient>
<clipPath id="clip0_538_18577">
<rect width="126" height="29" fill="white"/>
</clipPath>
</defs>
</svg>
