<svg width="24" height="24" viewBox="0 0 24 24" fill="none" xmlns="http://www.w3.org/2000/svg">
<path fill-rule="evenodd" clip-rule="evenodd" d="M21.0625 6.06055C21.0625 4.40369 19.7194 3.06055 18.0625 3.06055L14.0625 3.06055C14.0625 4.16512 14.9579 5.06055 16.0625 5.06055H18.0625C18.6148 5.06055 19.0625 5.50826 19.0625 6.06055V18.0605C19.0625 18.6128 18.6148 19.0605 18.0625 19.0605H16.0625C14.9579 19.0605 14.0625 19.956 14.0625 21.0605H18.0625C19.7194 21.0605 21.0625 19.7174 21.0625 18.0605V6.06055ZM6.77246 13.0596H17.0625V11.0596H10.0625V11.0605L3.93735 11.0605L2.94118 12.0567L9.64829 18.7638C10.4293 17.9828 10.4293 16.7164 9.64829 15.9354L6.77246 13.0596ZM9.64828 8.17804L7.76578 10.0605H4.93735L9.64829 5.34961C10.4293 6.13066 10.4293 7.39699 9.64828 8.17804Z" fill="white"/>
</svg>
