<svg width="32" height="33" viewBox="0 0 32 33" fill="none" xmlns="http://www.w3.org/2000/svg">
<path fill-rule="evenodd" clip-rule="evenodd" d="M11.3333 4.77832H8.55556V6.16721V8.94499V10.3339H11.3333V8.94499V6.16721V4.77832ZM22.4444 4.77832H19.6667V6.16721V8.94499V10.3339H22.4444V8.94499V6.16721V4.77832ZM22.4444 15.8894H5.77778V24.2228C5.77778 24.9898 6.3996 25.6117 7.16667 25.6117H23.8333C24.6004 25.6117 25.2222 24.9898 25.2222 24.2228V10.3339C25.2222 9.56681 24.6004 8.94499 23.8333 8.94499V6.16721C26.1345 6.16721 28 8.03269 28 10.3339V24.2228C28 26.5239 26.1345 28.3894 23.8333 28.3894H7.16667C4.86548 28.3894 3 26.5239 3 24.2228V13.1117V10.3339C3 8.03269 4.86548 6.16721 7.16667 6.16721V8.94499C6.3996 8.94499 5.77778 9.56681 5.77778 10.3339V13.1117H19.6667C21.2008 13.1117 22.4444 14.3553 22.4444 15.8894ZM18.2778 6.16721H12.7222V8.94499H18.2778V6.16721Z" fill="#005CAA"/>
</svg>
