<svg width="134" height="216" viewBox="0 0 134 216" fill="none" xmlns="http://www.w3.org/2000/svg">
<path d="M98.9987 44.9902L98.9987 26.9902C99.001 26.4607 99.2132 25.9536 99.5887 25.5802C99.9621 25.2046 100.469 24.9925 100.999 24.9902L121.469 24.9902L121.469 46.9902L100.999 46.9902C100.471 46.9907 99.9637 46.7822 99.5887 46.4102C99.4016 46.2242 99.2531 46.0029 99.1518 45.7592C99.0506 45.5155 98.9985 45.2541 98.9987 44.9902Z" fill="white" stroke="#9DB3E9" stroke-width="2" stroke-miterlimit="10"/>
<path d="M129 21.3301L129 50.6701C129 50.9353 129.105 51.1896 129.293 51.3772C129.48 51.5647 129.735 51.6701 130 51.6701L132 51.6701C132.265 51.6701 132.52 51.5647 132.707 51.3772C132.895 51.1896 133 50.9353 133 50.6701L133 21.3301C133 21.0649 132.895 20.8105 132.707 20.623C132.52 20.4354 132.265 20.3301 132 20.3301L130 20.3301C129.735 20.3301 129.48 20.4354 129.293 20.623C129.105 20.8105 129 21.0649 129 21.3301Z" fill="white" stroke="#9DB3E9" stroke-width="2" stroke-miterlimit="10"/>
<path d="M109.471 47.8198C108.917 47.8225 108.387 48.0435 107.996 48.4349C107.604 48.8263 107.383 49.3563 107.381 49.9098C107.381 50.4641 107.601 50.9957 107.993 51.3877C108.385 51.7796 108.916 51.9998 109.471 51.9998L119.711 51.9998C120.265 51.9998 120.797 51.7796 121.189 51.3877C121.581 50.9957 121.801 50.4641 121.801 49.9098C121.798 49.3563 121.577 48.8263 121.186 48.4349C120.794 48.0435 120.264 47.8225 119.711 47.8198L109.471 47.8198Z" fill="white" stroke="#9DB3E9" stroke-width="2" stroke-miterlimit="10"/>
<path d="M129 22.5L129 49.5L121.45 46.99L121.45 24.99L129 22.5Z" fill="white" stroke="#9DB3E9" stroke-width="2" stroke-miterlimit="10"/>
<path d="M109.471 20C108.917 20.0026 108.387 20.2237 107.996 20.6151C107.604 21.0064 107.383 21.5365 107.381 22.09C107.381 22.6443 107.601 23.1759 107.993 23.5679C108.385 23.9598 108.916 24.18 109.471 24.18L119.711 24.18C120.265 24.18 120.797 23.9598 121.189 23.5679C121.581 23.1759 121.801 22.6443 121.801 22.09C121.798 21.5365 121.577 21.0064 121.186 20.6151C120.794 20.2237 120.264 20.0026 119.711 20L109.471 20Z" fill="white" stroke="#9DB3E9" stroke-width="2" stroke-miterlimit="10"/>
<path d="M35.0013 27.0098L35.0013 45.0098C34.999 45.5393 34.7868 46.0464 34.4113 46.4198C34.0379 46.7954 33.5308 47.0075 33.0013 47.0098L12.5312 47.0098L12.5313 25.0098L33.0013 25.0098C33.5294 25.0093 34.0363 25.2178 34.4113 25.5898C34.5984 25.7758 34.7469 25.9971 34.8482 26.2408C34.9494 26.4845 35.0015 26.7459 35.0013 27.0098Z" fill="white" stroke="#9DB3E9" stroke-width="2" stroke-miterlimit="10"/>
<path d="M5 50.6699L5 21.3299C5 21.0647 4.89464 20.8104 4.70711 20.6228C4.51957 20.4353 4.26522 20.3299 4 20.3299L2 20.3299C1.73478 20.3299 1.48043 20.4353 1.29289 20.6228C1.10536 20.8104 1 21.0647 1 21.3299L1 50.6699C1 50.9351 1.10536 51.1895 1.29289 51.377C1.48043 51.5646 1.73478 51.6699 2 51.6699L4 51.6699C4.26522 51.6699 4.51957 51.5646 4.70711 51.377C4.89464 51.1895 5 50.9351 5 50.6699Z" fill="white" stroke="#9DB3E9" stroke-width="2" stroke-miterlimit="10"/>
<path d="M24.5292 24.1802C25.0827 24.1775 25.6128 23.9565 26.0042 23.5651C26.3955 23.1737 26.6166 22.6437 26.6192 22.0902C26.6192 21.5359 26.399 21.0043 26.0071 20.6123C25.6151 20.2204 25.0835 20.0002 24.5292 20.0002L14.2892 20.0002C13.7349 20.0002 13.2033 20.2204 12.8114 20.6123C12.4194 21.0043 12.1992 21.5359 12.1992 22.0902C12.2018 22.6437 12.4229 23.1737 12.8143 23.5651C13.2057 23.9565 13.7357 24.1775 14.2892 24.1802L24.5292 24.1802Z" fill="white" stroke="#9DB3E9" stroke-width="2" stroke-miterlimit="10"/>
<path d="M5 49.5L5 22.5L12.55 25.01L12.55 47.01L5 49.5Z" fill="white" stroke="#9DB3E9" stroke-width="2" stroke-miterlimit="10"/>
<path d="M24.5292 52C25.0827 51.9974 25.6128 51.7763 26.0042 51.3849C26.3955 50.9936 26.6166 50.4635 26.6192 49.91C26.6192 49.3557 26.399 48.8241 26.0071 48.4321C25.6151 48.0402 25.0835 47.82 24.5292 47.82L14.2892 47.82C13.7349 47.82 13.2033 48.0402 12.8114 48.4321C12.4194 48.8241 12.1992 49.3557 12.1992 49.91C12.2018 50.4635 12.4229 50.9936 12.8143 51.3849C13.2057 51.7763 13.7357 51.9974 14.2892 52L24.5292 52Z" fill="white" stroke="#9DB3E9" stroke-width="2" stroke-miterlimit="10"/>
<path d="M98.9987 116.99L98.9987 98.9902C99.001 98.4607 99.2132 97.9536 99.5887 97.5802C99.9621 97.2046 100.469 96.9925 100.999 96.9902L121.469 96.9902L121.469 118.99L100.999 118.99C100.471 118.991 99.9637 118.782 99.5887 118.41C99.4016 118.224 99.2531 118.003 99.1518 117.759C99.0506 117.515 98.9985 117.254 98.9987 116.99Z" fill="white" stroke="#9DB3E9" stroke-width="2" stroke-miterlimit="10"/>
<path d="M129 93.3301L129 122.67C129 122.935 129.105 123.19 129.293 123.377C129.48 123.565 129.735 123.67 130 123.67L132 123.67C132.265 123.67 132.52 123.565 132.707 123.377C132.895 123.19 133 122.935 133 122.67L133 93.3301C133 93.0649 132.895 92.8105 132.707 92.623C132.52 92.4354 132.265 92.3301 132 92.3301L130 92.3301C129.735 92.3301 129.48 92.4354 129.293 92.623C129.105 92.8105 129 93.0649 129 93.3301Z" fill="white" stroke="#9DB3E9" stroke-width="2" stroke-miterlimit="10"/>
<path d="M109.471 119.82C108.917 119.822 108.387 120.043 107.996 120.435C107.604 120.826 107.383 121.356 107.381 121.91C107.381 122.464 107.601 122.996 107.993 123.388C108.385 123.78 108.916 124 109.471 124L119.711 124C120.265 124 120.797 123.78 121.189 123.388C121.581 122.996 121.801 122.464 121.801 121.91C121.798 121.356 121.577 120.826 121.186 120.435C120.794 120.043 120.264 119.822 119.711 119.82L109.471 119.82Z" fill="white" stroke="#9DB3E9" stroke-width="2" stroke-miterlimit="10"/>
<path d="M129 94.5L129 121.5L121.45 118.99L121.45 96.99L129 94.5Z" fill="white" stroke="#9DB3E9" stroke-width="2" stroke-miterlimit="10"/>
<path d="M109.471 92C108.917 92.0026 108.387 92.2237 107.996 92.6151C107.604 93.0064 107.383 93.5365 107.381 94.09C107.381 94.6443 107.601 95.1759 107.993 95.5679C108.385 95.9598 108.916 96.18 109.471 96.18L119.711 96.18C120.265 96.18 120.797 95.9598 121.189 95.5679C121.581 95.1759 121.801 94.6443 121.801 94.09C121.798 93.5365 121.577 93.0064 121.186 92.6151C120.794 92.2237 120.264 92.0026 119.711 92L109.471 92Z" fill="white" stroke="#9DB3E9" stroke-width="2" stroke-miterlimit="10"/>
<path d="M98.9987 188.99L98.9987 170.99C99.001 170.461 99.2132 169.954 99.5887 169.58C99.9621 169.205 100.469 168.992 100.999 168.99L121.469 168.99L121.469 190.99L100.999 190.99C100.471 190.991 99.9637 190.782 99.5887 190.41C99.4016 190.224 99.2531 190.003 99.1518 189.759C99.0506 189.515 98.9985 189.254 98.9987 188.99Z" fill="white" stroke="#9DB3E9" stroke-width="2" stroke-miterlimit="10"/>
<path d="M129 165.33L129 194.67C129 194.935 129.105 195.19 129.293 195.377C129.48 195.565 129.735 195.67 130 195.67L132 195.67C132.265 195.67 132.52 195.565 132.707 195.377C132.895 195.19 133 194.935 133 194.67L133 165.33C133 165.065 132.895 164.811 132.707 164.623C132.52 164.435 132.265 164.33 132 164.33L130 164.33C129.735 164.33 129.48 164.435 129.293 164.623C129.105 164.811 129 165.065 129 165.33Z" fill="white" stroke="#9DB3E9" stroke-width="2" stroke-miterlimit="10"/>
<path d="M109.471 191.82C108.917 191.822 108.387 192.043 107.996 192.435C107.604 192.826 107.383 193.356 107.381 193.91C107.381 194.464 107.601 194.996 107.993 195.388C108.385 195.78 108.916 196 109.471 196L119.711 196C120.265 196 120.797 195.78 121.189 195.388C121.581 194.996 121.801 194.464 121.801 193.91C121.798 193.356 121.577 192.826 121.186 192.435C120.794 192.043 120.264 191.822 119.711 191.82L109.471 191.82Z" fill="white" stroke="#9DB3E9" stroke-width="2" stroke-miterlimit="10"/>
<path d="M129 166.5L129 193.5L121.45 190.99L121.45 168.99L129 166.5Z" fill="white" stroke="#9DB3E9" stroke-width="2" stroke-miterlimit="10"/>
<path d="M109.471 164C108.917 164.003 108.387 164.224 107.996 164.615C107.604 165.006 107.383 165.537 107.381 166.09C107.381 166.644 107.601 167.176 107.993 167.568C108.385 167.96 108.916 168.18 109.471 168.18L119.711 168.18C120.265 168.18 120.797 167.96 121.189 167.568C121.581 167.176 121.801 166.644 121.801 166.09C121.798 165.537 121.577 165.006 121.186 164.615C120.794 164.224 120.264 164.003 119.711 164L109.471 164Z" fill="white" stroke="#9DB3E9" stroke-width="2" stroke-miterlimit="10"/>
<path d="M35.0013 99.0098L35.0013 117.01C34.999 117.539 34.7868 118.046 34.4113 118.42C34.0379 118.795 33.5308 119.008 33.0013 119.01L12.5312 119.01L12.5313 97.0098L33.0013 97.0098C33.5294 97.0093 34.0363 97.2178 34.4113 97.5898C34.5984 97.7758 34.7469 97.9971 34.8482 98.2408C34.9494 98.4845 35.0015 98.7459 35.0013 99.0098Z" fill="white" stroke="#9DB3E9" stroke-width="2" stroke-miterlimit="10"/>
<path d="M5 122.67L5 93.3299C5 93.0647 4.89464 92.8104 4.70711 92.6228C4.51957 92.4353 4.26522 92.3299 4 92.3299L2 92.3299C1.73478 92.3299 1.48043 92.4353 1.29289 92.6228C1.10536 92.8104 1 93.0647 1 93.3299L1 122.67C1 122.935 1.10536 123.189 1.29289 123.377C1.48043 123.565 1.73478 123.67 2 123.67L4 123.67C4.26522 123.67 4.51957 123.565 4.70711 123.377C4.89464 123.189 5 122.935 5 122.67Z" fill="white" stroke="#9DB3E9" stroke-width="2" stroke-miterlimit="10"/>
<path d="M24.5292 96.1802C25.0827 96.1775 25.6128 95.9565 26.0042 95.5651C26.3955 95.1737 26.6166 94.6437 26.6192 94.0902C26.6192 93.5359 26.399 93.0043 26.0071 92.6123C25.6151 92.2204 25.0835 92.0002 24.5292 92.0002L14.2892 92.0002C13.7349 92.0002 13.2033 92.2204 12.8114 92.6123C12.4194 93.0043 12.1992 93.5359 12.1992 94.0902C12.2018 94.6437 12.4229 95.1737 12.8143 95.5651C13.2057 95.9565 13.7357 96.1775 14.2892 96.1802L24.5292 96.1802Z" fill="white" stroke="#9DB3E9" stroke-width="2" stroke-miterlimit="10"/>
<path d="M5 121.5L5 94.5L12.55 97.01L12.55 119.01L5 121.5Z" fill="white" stroke="#9DB3E9" stroke-width="2" stroke-miterlimit="10"/>
<path d="M24.5292 124C25.0827 123.997 25.6128 123.776 26.0042 123.385C26.3955 122.994 26.6166 122.463 26.6192 121.91C26.6192 121.356 26.399 120.824 26.0071 120.432C25.6151 120.04 25.0835 119.82 24.5292 119.82L14.2892 119.82C13.7349 119.82 13.2033 120.04 12.8114 120.432C12.4194 120.824 12.1992 121.356 12.1992 121.91C12.2018 122.463 12.4229 122.994 12.8143 123.385C13.2057 123.776 13.7357 123.997 14.2892 124L24.5292 124Z" fill="white" stroke="#9DB3E9" stroke-width="2" stroke-miterlimit="10"/>
<path d="M35.0013 171.01L35.0013 189.01C34.999 189.539 34.7868 190.046 34.4113 190.42C34.0379 190.795 33.5308 191.008 33.0013 191.01L12.5312 191.01L12.5313 169.01L33.0013 169.01C33.5294 169.009 34.0363 169.218 34.4113 169.59C34.5984 169.776 34.7469 169.997 34.8482 170.241C34.9494 170.485 35.0015 170.746 35.0013 171.01Z" fill="white" stroke="#9DB3E9" stroke-width="2" stroke-miterlimit="10"/>
<path d="M5 194.67L5 165.33C5 165.065 4.89464 164.81 4.70711 164.623C4.51957 164.435 4.26522 164.33 4 164.33L2 164.33C1.73478 164.33 1.48043 164.435 1.29289 164.623C1.10536 164.81 1 165.065 1 165.33L1 194.67C1 194.935 1.10536 195.189 1.29289 195.377C1.48043 195.565 1.73478 195.67 2 195.67L4 195.67C4.26522 195.67 4.51957 195.565 4.70711 195.377C4.89464 195.189 5 194.935 5 194.67Z" fill="white" stroke="#9DB3E9" stroke-width="2" stroke-miterlimit="10"/>
<path d="M24.5292 168.18C25.0827 168.178 25.6128 167.957 26.0042 167.565C26.3955 167.174 26.6166 166.644 26.6192 166.09C26.6192 165.536 26.399 165.004 26.0071 164.612C25.6151 164.22 25.0835 164 24.5292 164L14.2892 164C13.7349 164 13.2033 164.22 12.8114 164.612C12.4194 165.004 12.1992 165.536 12.1992 166.09C12.2018 166.644 12.4229 167.174 12.8143 167.565C13.2057 167.957 13.7357 168.178 14.2892 168.18L24.5292 168.18Z" fill="white" stroke="#9DB3E9" stroke-width="2" stroke-miterlimit="10"/>
<path d="M5 193.5L5 166.5L12.55 169.01L12.55 191.01L5 193.5Z" fill="white" stroke="#9DB3E9" stroke-width="2" stroke-miterlimit="10"/>
<path d="M24.5292 196C25.0827 195.997 25.6128 195.776 26.0042 195.385C26.3955 194.994 26.6166 194.463 26.6192 193.91C26.6192 193.356 26.399 192.824 26.0071 192.432C25.6151 192.04 25.0835 191.82 24.5292 191.82L14.2892 191.82C13.7349 191.82 13.2033 192.04 12.8114 192.432C12.4194 192.824 12.1992 193.356 12.1992 193.91C12.2018 194.463 12.4229 194.994 12.8143 195.385C13.2057 195.776 13.7357 195.997 14.2892 196L24.5292 196Z" fill="white" stroke="#9DB3E9" stroke-width="2" stroke-miterlimit="10"/>
<rect x="32" y="1" width="70" height="214" rx="11" fill="white" stroke="#9DB3E9" stroke-width="2"/>
</svg>
