<svg width="20" height="20" viewBox="0 0 20 20" fill="none" xmlns="http://www.w3.org/2000/svg">
<path d="M1.4006 20.0002C1.20111 19.9997 1.00401 19.9567 0.822431 19.8741C0.640856 19.7915 0.478975 19.6711 0.347575 19.521C0.216174 19.3709 0.118272 19.1945 0.0603913 19.0036C0.00251067 18.8127 -0.0140192 18.6117 0.0119031 18.4139L0.513474 14.581C0.559306 14.2341 0.717987 13.9119 0.965044 13.6642L14.1797 0.44949C14.4684 0.161643 14.8594 0 15.267 0C15.6747 0 16.0657 0.161643 16.3544 0.44949L19.5505 3.64564C19.8384 3.93429 20 4.32531 20 4.73296C20 5.14061 19.8384 5.53163 19.5505 5.82028L6.33584 19.035C6.08812 19.2821 5.76593 19.4408 5.41902 19.4865L1.58615 19.9881C1.52463 19.9962 1.46265 20.0002 1.4006 20.0002ZM2.43382 14.9575L2.04123 17.9588L5.04246 17.5662L17.8755 4.73315L15.2668 2.12452L2.43382 14.9575Z" fill="#15A696"/>
<path d="M15.8898 9.07266C15.7617 9.07303 15.6347 9.04811 15.5162 8.99931C15.3976 8.95051 15.2899 8.87879 15.1992 8.78828L11.2077 4.7968C11.0245 4.61343 10.9217 4.3648 10.9219 4.10561C10.922 3.84643 11.0251 3.59792 11.2085 3.41475C11.3919 3.23158 11.6405 3.12876 11.8997 3.12891C12.1589 3.12905 12.4074 3.23215 12.5906 3.41553L16.5805 7.40544C16.7171 7.54202 16.8101 7.71604 16.8478 7.90551C16.8855 8.09497 16.8662 8.29135 16.7922 8.46982C16.7183 8.64829 16.5931 8.80082 16.4325 8.90813C16.2718 9.01544 16.083 9.07269 15.8898 9.07266Z" fill="#15A696"/>
</svg>
