<svg width="32" height="33" viewBox="0 0 32 33" fill="none" xmlns="http://www.w3.org/2000/svg">
<path fill-rule="evenodd" clip-rule="evenodd" d="M6.66667 8.77832C6.66667 8.04194 7.26362 7.44499 8 7.44499H17.3333V10.1117C17.3333 12.3208 19.1242 14.1117 21.3333 14.1117H25.3333V24.7783C25.3333 25.5147 24.7364 26.1117 24 26.1117H8C7.26362 26.1117 6.66667 25.5147 6.66667 24.7783V8.77832ZM23.4477 11.445L20 7.99727V10.1117C20 10.848 20.597 11.445 21.3333 11.445H23.4477ZM8 4.77832C5.79086 4.77832 4 6.56918 4 8.77832V24.7783C4 26.9875 5.79086 28.7783 8 28.7783H24C26.2091 28.7783 28 26.9875 28 24.7783V13.8829C28 12.822 27.5786 11.8046 26.8284 11.0545L21.7239 5.94989C20.9737 5.19975 19.9563 4.77832 18.8954 4.77832H8ZM20 20.7783H9.33333C9.33333 22.2511 10.5272 23.445 12 23.445H22.6667C22.6667 21.9722 21.4728 20.7783 20 20.7783ZM9.33333 15.445H17.3333C18.8061 15.445 20 16.6389 20 18.1117H12C10.5272 18.1117 9.33333 16.9177 9.33333 15.445Z" fill="#005CAA"/>
</svg>
