<svg width="32" height="33" viewBox="0 0 32 33" fill="none" xmlns="http://www.w3.org/2000/svg">
<path fill-rule="evenodd" clip-rule="evenodd" d="M11.6373 28.3077L9.6652 25.2234L9.41474 24.8317L8.96089 24.717L5.38729 23.814L5.6238 20.1716L5.65384 19.709L5.35478 19.3522L3 16.543L5.35478 13.7338L5.65384 13.3771L5.6238 12.9145L5.38729 9.27204L8.96089 8.36907L9.41474 8.25439L9.6652 7.86268L11.6373 4.77832L15.0647 6.12649L15.5 6.29771L15.9353 6.12649L19.3627 4.77832L21.3348 7.86268L21.5853 8.25439L22.0391 8.36907L25.6127 9.27204L25.3762 12.9145L25.3462 13.3771L25.6452 13.7338L28 16.543L25.6452 19.3522L25.3462 19.709L25.3762 20.1716L25.6127 23.814L22.0391 24.717L21.5853 24.8317L21.3348 25.2234L19.3627 28.3077L15.9353 26.9596L15.5 26.7883L15.0647 26.9596L11.6373 28.3077Z" stroke="#005CAA" stroke-width="3"/>
<path fill-rule="evenodd" clip-rule="evenodd" d="M15.4995 19.4842C17.1239 19.4842 18.4407 18.1674 18.4407 16.543C18.4407 14.9186 17.1239 13.6018 15.4995 13.6018C13.8752 13.6018 12.5584 14.9186 12.5584 16.543C12.5584 18.1674 13.8752 19.4842 15.4995 19.4842ZM15.4995 22.4254C18.7483 22.4254 21.3819 19.7917 21.3819 16.543C21.3819 13.2943 18.7483 10.6606 15.4995 10.6606C12.2508 10.6606 9.61719 13.2943 9.61719 16.543C9.61719 19.7917 12.2508 22.4254 15.4995 22.4254Z" fill="#005CAA"/>
</svg>
