<svg width="56" height="56" viewBox="0 0 56 56" fill="none" xmlns="http://www.w3.org/2000/svg">
<path fill-rule="evenodd" clip-rule="evenodd" d="M22.6485 16.813H17.7505V27.2061H22.6485C25.6689 27.2061 28.1176 24.8801 28.1176 22.0097C28.1176 19.14 25.6689 16.813 22.6485 16.813Z" fill="#005CAA"/>
<path fill-rule="evenodd" clip-rule="evenodd" d="M34.2117 28.3694H29.3135V38.7617H34.2117C37.2321 38.7617 39.6806 36.4358 39.6806 33.5661C39.6806 30.6957 37.2321 28.3694 34.2117 28.3694Z" fill="#005CAA"/>
<path fill-rule="evenodd" clip-rule="evenodd" d="M34.2166 16.813H29.3179V27.2061H34.2166C37.2368 27.2061 39.6855 24.8801 39.6855 22.0097C39.6855 19.14 37.2368 16.813 34.2166 16.813Z" fill="#005CAA"/>
<path fill-rule="evenodd" clip-rule="evenodd" d="M22.6443 28.3694H17.7461V38.7617H22.6443C25.6651 38.7617 28.1132 36.4358 28.1132 33.5661C28.1132 30.6957 25.6651 28.3694 22.6443 28.3694Z" fill="#005CAA"/>
<path fill-rule="evenodd" clip-rule="evenodd" d="M27.8438 0C43.222 0 55.6883 12.486 55.6883 27.8897C55.6883 43.2921 43.222 55.7786 27.8438 55.7786C12.4656 55.7786 0 43.2921 0 27.8897C0 12.486 12.4656 0 27.8438 0ZM27.8438 8.28005C17.0317 8.28005 8.26679 17.0594 8.26679 27.8897C8.26679 38.7194 17.0317 47.4981 27.8438 47.4981C38.6566 47.4981 47.4213 38.7194 47.4213 27.8897C47.4213 17.0594 38.6566 8.28005 27.8438 8.28005Z" fill="#005CAA"/>
</svg>
