<svg width="18" height="18" viewBox="0 0 18 18" fill="none" xmlns="http://www.w3.org/2000/svg">
<path fill-rule="evenodd" clip-rule="evenodd" d="M12.25 7C12.25 9.8995 9.8995 12.25 7 12.25C4.10051 12.25 1.75 9.8995 1.75 7C1.75 4.10051 4.10051 1.75 7 1.75C9.8995 1.75 12.25 4.10051 12.25 7ZM14 7C14 10.866 10.866 14 7 14C3.13401 14 0 10.866 0 7C0 3.13401 3.13401 0 7 0C10.866 0 14 3.13401 14 7ZM12.1816 13.0961C12.6912 12.6625 13.1457 12.1662 13.5332 11.6191L17.5004 15.5863C17.8909 15.9769 17.8909 16.61 17.5004 17.0006C17.1098 17.3911 16.4767 17.3911 16.0861 17.0006L12.1816 13.0961Z" fill="#2D465B"/>
</svg>
