<svg width="48" height="48" viewBox="0 0 48 48" fill="none" xmlns="http://www.w3.org/2000/svg">
<path d="M15.4006 34.0002C15.2011 33.9997 15.004 33.9567 14.8224 33.8741C14.6409 33.7915 14.479 33.6711 14.3476 33.521C14.2162 33.3709 14.1183 33.1945 14.0604 33.0036C14.0025 32.8127 13.986 32.6117 14.0119 32.4139L14.5135 28.581C14.5593 28.2341 14.718 27.9119 14.965 27.6642L28.1797 14.4495C28.4684 14.1616 28.8594 14 29.267 14C29.6747 14 30.0657 14.1616 30.3544 14.4495L33.5505 17.6456C33.8384 17.9343 34 18.3253 34 18.733C34 19.1406 33.8384 19.5316 33.5505 19.8203L20.3358 33.035C20.0881 33.2821 19.7659 33.4408 19.419 33.4865L15.5861 33.9881C15.5246 33.9962 15.4626 34.0002 15.4006 34.0002ZM16.4338 28.9575L16.0412 31.9588L19.0425 31.5662L31.8755 18.7332L29.2668 16.1245L16.4338 28.9575Z" fill="#15A696"/>
<path d="M29.8898 23.0727C29.7617 23.073 29.6347 23.0481 29.5162 22.9993C29.3976 22.9505 29.2899 22.8788 29.1992 22.7883L25.2077 18.7968C25.0245 18.6134 24.9217 18.3648 24.9219 18.1056C24.922 17.8464 25.0251 17.5979 25.2085 17.4147C25.3919 17.2316 25.6405 17.1288 25.8997 17.1289C26.1589 17.1291 26.4074 17.2322 26.5906 17.4155L30.5805 21.4054C30.7171 21.542 30.8101 21.716 30.8478 21.9055C30.8855 22.095 30.8662 22.2914 30.7922 22.4698C30.7183 22.6483 30.5931 22.8008 30.4325 22.9081C30.2718 23.0154 30.083 23.0727 29.8898 23.0727Z" fill="#15A696"/>
</svg>
