<svg width="32" height="33" viewBox="0 0 32 33" fill="none" xmlns="http://www.w3.org/2000/svg">
<path d="M11.5 17.7783C10.61 17.7783 9.73995 17.5144 8.99993 17.0199C8.25991 16.5255 7.68314 15.8227 7.34254 15.0004C7.00195 14.1781 6.91283 13.2733 7.08647 12.4004C7.2601 11.5275 7.68868 10.7257 8.31802 10.0963C8.94736 9.46701 9.74918 9.03842 10.6221 8.86479C11.495 8.69115 12.3998 8.78027 13.2221 9.12086C14.0443 9.46146 14.7471 10.0382 15.2416 10.7783C15.7361 11.5183 16 12.3883 16 13.2783C15.9987 14.4714 15.5241 15.6152 14.6805 16.4588C13.8369 17.3025 12.6931 17.777 11.5 17.7783ZM11.5 10.7783C11.0055 10.7783 10.5222 10.9249 10.1111 11.1996C9.69995 11.4744 9.37952 11.8648 9.1903 12.3216C9.00108 12.7784 8.95157 13.2811 9.04804 13.766C9.1445 14.251 9.3826 14.6965 9.73223 15.0461C10.0819 15.3957 10.5273 15.6338 11.0123 15.7303C11.4972 15.8267 11.9999 15.7772 12.4567 15.588C12.9135 15.3988 13.304 15.0784 13.5787 14.6672C13.8534 14.2561 14 13.7728 14 13.2783C14 12.6153 13.7366 11.9794 13.2678 11.5106C12.7989 11.0417 12.163 10.7783 11.5 10.7783ZM19 24.7783C18.9984 23.4527 18.4711 22.1819 17.5338 21.2445C16.5964 20.3072 15.3256 19.7799 14 19.7783H9C7.67441 19.7799 6.40356 20.3072 5.46622 21.2445C4.52888 22.1819 4.00159 23.4527 4 24.7783L4 28.7783H6V24.7783C6 23.9827 6.31607 23.2196 6.87868 22.657C7.44129 22.0944 8.20435 21.7783 9 21.7783H14C14.7956 21.7783 15.5587 22.0944 16.1213 22.657C16.6839 23.2196 17 23.9827 17 24.7783V28.7783H19V24.7783ZM21.5 13.7783C20.61 13.7783 19.74 13.5144 18.9999 13.0199C18.2599 12.5255 17.6831 11.8227 17.3425 11.0004C17.0019 10.1781 16.9128 9.27333 17.0865 8.40042C17.2601 7.5275 17.6887 6.72568 18.318 6.09634C18.9474 5.46701 19.7492 5.03842 20.6221 4.86479C21.495 4.69116 22.3998 4.78027 23.2221 5.12086C24.0443 5.46146 24.7471 6.03824 25.2416 6.77826C25.7361 7.51828 26 8.38831 26 9.27832C25.9987 10.4714 25.5241 11.6152 24.6805 12.4588C23.8369 13.3025 22.6931 13.777 21.5 13.7783ZM21.5 6.77832C21.0055 6.77832 20.5222 6.92494 20.1111 7.19965C19.7 7.47435 19.3795 7.8648 19.1903 8.32161C19.0011 8.77843 18.9516 9.2811 19.048 9.76605C19.1445 10.251 19.3826 10.6965 19.7322 11.0461C20.0819 11.3957 20.5273 11.6338 21.0123 11.7303C21.4972 11.8267 21.9999 11.7772 22.4567 11.588C22.9135 11.3988 23.304 11.0784 23.5787 10.6672C23.8534 10.2561 24 9.77278 24 9.27832C24 8.61528 23.7366 7.9794 23.2678 7.51056C22.7989 7.04171 22.163 6.77832 21.5 6.77832ZM28 20.7783C27.9984 19.4527 27.4711 18.1819 26.5338 17.2445C25.5964 16.3072 24.3256 15.7799 23 15.7783H19C19 15.7783 18.9722 17.7783 20.1111 17.7783C21.25 17.7783 23 17.7783 23 17.7783C23.7957 17.7783 24.5587 18.0944 25.1213 18.657C25.6839 19.2196 26 19.9827 26 20.7783C26 20.7783 26 22.7783 26 23.5283C26 24.2783 28 24.7783 28 24.7783V20.7783Z" fill="#005CAA"/>
</svg>
