<svg width="88" height="56" viewBox="0 0 88 56" fill="none" xmlns="http://www.w3.org/2000/svg">
<path fill-rule="evenodd" clip-rule="evenodd" d="M38.6485 16.813H33.7505V27.2061H38.6485C41.6689 27.2061 44.1176 24.8801 44.1176 22.0097C44.1176 19.14 41.6689 16.813 38.6485 16.813Z" fill="#005CAA"/>
<path fill-rule="evenodd" clip-rule="evenodd" d="M50.2117 28.3694H45.3135V38.7617H50.2117C53.2321 38.7617 55.6806 36.4358 55.6806 33.5661C55.6806 30.6957 53.2321 28.3694 50.2117 28.3694Z" fill="#005CAA"/>
<path fill-rule="evenodd" clip-rule="evenodd" d="M50.2166 16.813H45.3179V27.2061H50.2166C53.2368 27.2061 55.6855 24.8801 55.6855 22.0097C55.6855 19.14 53.2368 16.813 50.2166 16.813Z" fill="#005CAA"/>
<path fill-rule="evenodd" clip-rule="evenodd" d="M38.6443 28.3694H33.7461V38.7617H38.6443C41.6651 38.7617 44.1132 36.4358 44.1132 33.5661C44.1132 30.6957 41.6651 28.3694 38.6443 28.3694Z" fill="#005CAA"/>
<path fill-rule="evenodd" clip-rule="evenodd" d="M43.8438 0C59.222 0 71.6883 12.486 71.6883 27.8897C71.6883 43.2921 59.222 55.7786 43.8438 55.7786C28.4656 55.7786 16 43.2921 16 27.8897C16 12.486 28.4656 0 43.8438 0ZM43.8438 8.28005C33.0317 8.28005 24.2668 17.0594 24.2668 27.8897C24.2668 38.7194 33.0317 47.4981 43.8438 47.4981C54.6566 47.4981 63.4213 38.7194 63.4213 27.8897C63.4213 17.0594 54.6566 8.28005 43.8438 8.28005Z" fill="#005CAA"/>
</svg>
